<?xml version="1.0" standalone="no"?>
<!DOCTYPE svg PUBLIC "-//W3C//DTD SVG 20010904//EN"
 "http://www.w3.org/TR/2001/REC-SVG-20010904/DTD/svg10.dtd">
<svg version="1.0" xmlns="http://www.w3.org/2000/svg"
 width="512.000000pt" height="512.000000pt" viewBox="0 0 512.000000 512.000000"
 preserveAspectRatio="xMidYMid meet">

<g transform="translate(0.000000,512.000000) scale(0.100000,-0.100000)"
fill="#ffffff80" stroke="none">
<path  fill="#ffffff80" d="M2365 5114 c-108 -9 -326 -46 -435 -73 -172 -44 -335 -105 -509 -192
-503 -249 -900 -646 -1150 -1150 -126 -252 -198 -480 -243 -764 -32 -201 -32
-549 0 -750 45 -284 117 -512 243 -764 249 -503 646 -900 1150 -1150 252 -126
480 -198 764 -243 201 -32 549 -32 750 0 284 45 512 117 764 243 504 250 901
647 1150 1150 126 252 198 480 243 764 32 201 32 549 0 750 -45 284 -117 512
-243 764 -249 503 -646 900 -1150 1150 -357 178 -685 258 -1084 265 -110 2
-222 2 -250 0z m538 -179 c362 -57 693 -184 981 -376 587 -392 951 -976 1057
-1694 18 -118 18 -492 0 -610 -90 -613 -379 -1145 -826 -1522 -353 -298 -773
-484 -1250 -554 -118 -18 -492 -18 -610 0 -639 94 -1179 398 -1567 882 -271
337 -442 738 -509 1194 -18 118 -18 492 0 610 78 531 296 985 655 1363 243
256 603 484 951 601 199 67 334 95 595 125 75 9 430 -4 523 -19z"/>
<path fill="#ffffff80" d="M2046 3333 c-38 -60 -838 -1543 -843 -1564 -5 -19 15 -19 921 -19
l926 0 23 38 c46 73 847 1559 847 1571 0 8 -236 11 -925 11 l-925 0 -24 -37z"/>
</g>
</svg>
